# xmcd CD database file
#
# Track frame offsets:
#	150
#	6813
#	18362
#	34094
#	57087
#	89162
#	113429
#	135943
#	173182
#	200079
#	242786
#	254816
#	274475
#	285883
#	303522
#	324133
#
# Disc length: 4692 seconds
#
# Revision: 0
# Processed by: cddbd v1.4PL0 Copyright (c) Steve Scherf et al.
# Submitted via: CDex 1.50
#
DISCID=db125210
DTITLE=Tom Waits - At the Cirkus 14/jul/99 cd 1
DYEAR=1999
DGENRE=Blues
TTITLE0=Lucky day overture y fragmentos de Step right up
TTITLE1=Black rider
TTITLE2=Jockey full of bourbon
TTITLE3=Jesus gonna be here
TTITLE4=Get behind the mule
TTITLE5=Walk away
TTITLE6=Chocolate Jesus
TTITLE7=Hold on
TTITLE8=Eyeball kid
TTITLE9=What's he building
TTITLE10=A little rain
TTITLE11=Invitation to the blues
TTITLE12=Hang down your head
TTITLE13=Tango till they're sore
TTITLE14=Innocent when you dream
TTITLE15=16 Shells From A Thirty-Ought-Six 
EXTD=YEAR: 1999
EXTT0=
EXTT1=
EXTT2=
EXTT3=
EXTT4=
EXTT5=
EXTT6=
EXTT7=
EXTT8=
EXTT9=
EXTT10=
EXTT11=
EXTT12=
EXTT13=
EXTT14=
EXTT15=
PLAYORDER=
